# xmcd CD database file
#
# Track frame offsets:
#	150
#	17698
#	34240
#	60508
#	76352
#	92002
#	109801
#	124408
#	140308
#	157492
#	174691
#	193208
#	213595
#	229355
#	249045
#	269397
#	288600
#	307647
#
# Disc length: 4339 seconds
#
# Revision: 2
# Processed by: cddbd v1.5.2PL0 Copyright (c) Steve Scherf et al.
# Submitted via: CDex 1.51
#
DISCID=0610f112
DTITLE=Various Artist - SF-341
DYEAR=1900
DGENRE=Blues
TTITLE0=Ella Henderson - Ghost
TTITLE1=George Ezra - Budapest
TTITLE2=La Roux - Let Me Down Gently
TTITLE3=Artic Monkeys - Snap Out Of It
TTITLE4=Oliver Heldens and Beck Hill - Gecko (overdrive)
TTITLE5=Jess Glynne - Right Here
TTITLE6=Kasabian - Eez-Eh
TTITLE7=Ariana Grande Ft Iggy Azalea - Problem
TTITLE8=Bastille - Bad Blood
TTITLE9=Neon Jungle - Louder
TTITLE10=Cheryl Cole Ft Tinie Tempah - Crazy Stupid Love
TTITLE11=The 1975 - Robbers
TTITLE12=Jason Derulo Ft Snoop dogg - Wiggle
TTITLE13=Nicole Scherzinger - Your Love
TTITLE14=Will.i.am Ft Cody Wise - It's My Birthday
TTITLE15=Fuse ODG Ft Sean Paul - Dangerous Love
TTITLE16=Demi Lovato - Neon Lights
TTITLE17=Twin Atlantic - Heart And Soul
EXTD=
EXTT0=
EXTT1=
EXTT2=
EXTT3=
EXTT4=
EXTT5=
EXTT6=
EXTT7=
EXTT8=
EXTT9=
EXTT10=
EXTT11=
EXTT12=
EXTT13=
EXTT14=
EXTT15=
EXTT16=
EXTT17=
PLAYORDER=
